<svg width="1200" height="630" xmlns="http://www.w3.org/2000/svg">
  <!-- Geolocation: Fairmont, WV (39.4851, -80.1426) -->
  <metadata>
    <rdf:RDF xmlns:rdf="http://www.w3.org/1999/02/22-rdf-syntax-ns#"
             xmlns:exif="http://ns.adobe.com/exif/1.0/">
      <rdf:Description rdf:about=""
        exif:GPSLatitude="39.4851"
        exif:GPSLongitude="-80.1426"
        exif:GPSAltitude="0"
        exif:Location="Fairmont, WV"/>
    </rdf:Description>
  </metadata>

  <defs>
    <linearGradient id="bgGrad6" x1="0%" y1="0%" x2="100%" y2="100%">
      <stop offset="0%" style="stop-color:#0C2340;stop-opacity:1" />
      <stop offset="100%" style="stop-color:#0F3556;stop-opacity:1" />
    </linearGradient>
  </defs>

  <rect width="1200" height="630" fill="url(#bgGrad6)"/>

  <!-- Phone/Device -->
  <rect x="350" y="120" width="500" height="440" rx="20" fill="#1a1a1a" stroke="#333" stroke-width="3"/>
  <rect x="370" y="150" width="460" height="380" fill="#fff"/>

  <!-- Google Logo Colors -->
  <text x="600" y="200" font-family="Arial, sans-serif" font-size="32" font-weight="bold" text-anchor="middle">
    <tspan fill="#4285F4">G</tspan><tspan fill="#EA4335">o</tspan><tspan fill="#FBBC04">o</tspan><tspan fill="#4285F4">g</tspan><tspan fill="#0D5C3B">l</tspan><tspan fill="#EA4335">e</tspan>
    <tspan fill="#666"> Reviews</tspan>
  </text>

  <!-- Stars -->
  <!-- Star 1 -->
  <polygon points="440,250 447,267 465,267 450,278 457,295 440,284 423,295 430,278 415,267 433,267" fill="#FBBC04"/>
  <!-- Star 2 -->
  <polygon points="515,250 522,267 540,267 525,278 532,295 515,284 498,295 505,278 490,267 508,267" fill="#FBBC04"/>
  <!-- Star 3 -->
  <polygon points="590,250 597,267 615,267 600,278 607,295 590,284 573,295 580,278 565,267 583,267" fill="#FBBC04"/>
  <!-- Star 4 -->
  <polygon points="665,250 672,267 690,267 675,278 682,295 665,284 648,295 655,278 640,267 658,267" fill="#FBBC04"/>
  <!-- Star 5 -->
  <polygon points="740,250 747,267 765,267 750,278 757,295 740,284 723,295 730,278 715,267 733,267" fill="#FBBC04"/>

  <!-- Rating -->
  <text x="600" y="340" font-family="Arial, sans-serif" font-size="48" font-weight="bold" fill="#0C2340" text-anchor="middle">
    4.9
  </text>
  <text x="600" y="375" font-family="Arial, sans-serif" font-size="20" fill="#666" text-anchor="middle">
    Based on 127 reviews
  </text>

  <!-- Review Cards -->
  <rect x="390" y="400" width="200" height="100" rx="8" fill="#F5E6D3" opacity="0.5"/>
  <rect x="610" y="400" width="200" height="100" rx="8" fill="#F5E6D3" opacity="0.5"/>

  <!-- Small stars in cards -->
  <text x="410" y="425" font-family="Arial, sans-serif" font-size="16" fill="#FBBC04">★★★★★</text>
  <text x="630" y="425" font-family="Arial, sans-serif" font-size="16" fill="#FBBC04">★★★★★</text>

  <rect x="410" y="435" width="160" height="8" rx="2" fill="#0C2340" opacity="0.3"/>
  <rect x="410" y="450" width="140" height="8" rx="2" fill="#0C2340" opacity="0.3"/>
  <rect x="410" y="465" width="150" height="8" rx="2" fill="#0C2340" opacity="0.3"/>

  <rect x="630" y="435" width="155" height="8" rx="2" fill="#0C2340" opacity="0.3"/>
  <rect x="630" y="450" width="145" height="8" rx="2" fill="#0C2340" opacity="0.3"/>
  <rect x="630" y="465" width="160" height="8" rx="2" fill="#0C2340" opacity="0.3"/>

  <!-- SEO Badge -->
  <circle cx="200" cy="315" r="70" fill="#0D5C3B" opacity="0.3"/>
  <circle cx="200" cy="315" r="55" fill="#0D5C3B"/>
  <text x="200" y="310" font-family="Arial, sans-serif" font-size="32" font-weight="bold" fill="#fff" text-anchor="middle">
    SEO
  </text>
  <text x="200" y="335" font-family="Arial, sans-serif" font-size="16" fill="#fff" text-anchor="middle">
    BOOST
  </text>

  <circle cx="1000" cy="315" r="70" fill="#D2622A" opacity="0.3"/>
  <circle cx="1000" cy="315" r="55" fill="#D2622A"/>
  <text x="1000" y="325" font-family="Arial, sans-serif" font-size="48" font-weight="bold" fill="#fff" text-anchor="middle">
    +1
  </text>

  <!-- Title -->
  <text x="600" y="70" font-family="Arial, sans-serif" font-size="38" font-weight="bold" fill="#F5E6D3" text-anchor="middle">
    Customer Reviews Power SEO
  </text>
  <text x="600" y="600" font-family="Arial, sans-serif" font-size="24" fill="#D2622A" text-anchor="middle">
    More Reviews = Higher Rankings
  </text>
</svg>
