<svg width="1200" height="630" xmlns="http://www.w3.org/2000/svg">
  <!-- Geolocation: Wheeling, WV (40.0640, -80.7209) -->
  <metadata>
    <rdf:RDF xmlns:rdf="http://www.w3.org/1999/02/22-rdf-syntax-ns#"
             xmlns:exif="http://ns.adobe.com/exif/1.0/">
      <rdf:Description rdf:about=""
        exif:GPSLatitude="40.0640"
        exif:GPSLongitude="-80.7209"
        exif:GPSAltitude="0"
        exif:Location="Wheeling, WV"/>
    </rdf:Description>
  </metadata>

  <defs>
    <linearGradient id="bgGrad5" x1="0%" y1="0%" x2="100%" y2="100%">
      <stop offset="0%" style="stop-color:#0C2340;stop-opacity:1" />
      <stop offset="100%" style="stop-color:#0F3556;stop-opacity:1" />
    </linearGradient>
  </defs>

  <rect width="1200" height="630" fill="url(#bgGrad5)"/>

  <!-- Smartphone -->
  <rect x="450" y="80" width="300" height="520" rx="30" fill="#1a1a1a" stroke="#333" stroke-width="4"/>
  <rect x="470" y="120" width="260" height="460" fill="#fff"/>

  <!-- Notch -->
  <rect x="550" y="85" width="100" height="25" rx="12" fill="#0C2340"/>

  <!-- Screen Content -->
  <!-- Header -->
  <rect x="470" y="120" width="260" height="60" fill="#0C2340"/>
  <circle cx="500" cy="150" r="10" fill="#D2622A"/>
  <rect x="520" y="143" width="80" height="14" rx="3" fill="#F5E6D3" opacity="0.7"/>

  <!-- Content -->
  <rect x="490" y="200" width="220" height="25" rx="3" fill="#0C2340" opacity="0.8"/>
  <rect x="490" y="240" width="180" height="12" rx="2" fill="#666" opacity="0.4"/>
  <rect x="490" y="260" width="200" height="12" rx="2" fill="#666" opacity="0.4"/>

  <!-- Click-to-Call Button -->
  <rect x="490" y="290" width="220" height="50" rx="10" fill="#D2622A"/>
  <circle cx="550" cy="315" r="12" fill="#fff"/>
  <path d="M 547 310 Q 547 308 549 308 L 551 308 Q 553 308 553 310 L 553 320 Q 553 322 551 322 L 549 322 Q 547 322 547 320 Z" fill="#D2622A"/>
  <text x="635" y="322" font-family="Arial, sans-serif" font-size="18" font-weight="bold" fill="#fff" text-anchor="middle">
    CALL NOW
  </text>

  <!-- Images -->
  <rect x="490" y="360" width="100" height="80" rx="5" fill="#D2622A" opacity="0.3"/>
  <rect x="600" y="360" width="100" height="80" rx="5" fill="#0D5C3B" opacity="0.3"/>

  <!-- Form -->
  <rect x="490" y="460" width="220" height="30" rx="5" fill="#f0f0f0"/>
  <rect x="490" y="500" width="220" height="30" rx="5" fill="#f0f0f0"/>

  <!-- Checkmarks -->
  <circle cx="250" cy="300" r="50" fill="#0D5C3B" opacity="0.3"/>
  <circle cx="250" cy="300" r="35" fill="#0D5C3B"/>
  <path d="M 235 300 L 245 312 L 270 285" stroke="#fff" stroke-width="6" fill="none" stroke-linecap="round"/>

  <text x="250" y="390" font-family="Arial, sans-serif" font-size="20" fill="#F5E6D3" text-anchor="middle">
    Fast Loading
  </text>

  <circle cx="950" cy="300" r="50" fill="#0D5C3B" opacity="0.3"/>
  <circle cx="950" cy="300" r="35" fill="#0D5C3B"/>
  <path d="M 935 300 L 945 312 L 970 285" stroke="#fff" stroke-width="6" fill="none" stroke-linecap="round"/>

  <text x="950" y="390" font-family="Arial, sans-serif" font-size="20" fill="#F5E6D3" text-anchor="middle">
    Easy to Use
  </text>

  <!-- Title -->
  <text x="600" y="50" font-family="Arial, sans-serif" font-size="40" font-weight="bold" fill="#F5E6D3" text-anchor="middle">
    Mobile-First Design
  </text>
  <text x="600" y="610" font-family="Arial, sans-serif" font-size="26" fill="#D2622A" text-anchor="middle">
    70% of Users Search on Mobile
  </text>
</svg>
