<svg width="1200" height="630" xmlns="http://www.w3.org/2000/svg">
  <!-- Geolocation: Charleston, WV (38.3498, -81.6326) -->
  <metadata>
    <rdf:RDF xmlns:rdf="http://www.w3.org/1999/02/22-rdf-syntax-ns#"
             xmlns:exif="http://ns.adobe.com/exif/1.0/">
      <rdf:Description rdf:about=""
        exif:GPSLatitude="38.3498"
        exif:GPSLongitude="-81.6326"
        exif:GPSAltitude="0"
        exif:Location="Charleston, WV"/>
    </rdf:Description>
  </metadata>

  <!-- Background Gradient -->
  <defs>
    <linearGradient id="bgGrad1" x1="0%" y1="0%" x2="100%" y2="100%">
      <stop offset="0%" style="stop-color:#0C2340;stop-opacity:1" />
      <stop offset="50%" style="stop-color:#0F3556;stop-opacity:1" />
      <stop offset="100%" style="stop-color:#0C2340;stop-opacity:1" />
    </linearGradient>
    <pattern id="grid1" width="60" height="60" patternUnits="userSpaceOnUse">
      <path d="M 60 0 L 0 0 0 60" fill="none" stroke="#0D5C3B" stroke-width="1" opacity="0.1"/>
    </pattern>
  </defs>

  <rect width="1200" height="630" fill="url(#bgGrad1)"/>
  <rect width="1200" height="630" fill="url(#grid1)"/>

  <!-- Laptop/Monitor Shape -->
  <rect x="250" y="150" width="700" height="400" rx="10" fill="#1a1a1a" stroke="#333" stroke-width="3"/>
  <rect x="270" y="170" width="660" height="370" fill="#fff"/>

  <!-- Website Elements on Screen -->
  <!-- Header Bar -->
  <rect x="270" y="170" width="660" height="50" fill="#0C2340"/>
  <circle cx="300" cy="195" r="8" fill="#D2622A"/>
  <rect x="320" y="188" width="100" height="14" rx="3" fill="#F5E6D3" opacity="0.7"/>

  <!-- Hero Section -->
  <rect x="290" y="240" width="300" height="20" rx="3" fill="#0C2340" opacity="0.8"/>
  <rect x="290" y="270" width="250" height="12" rx="2" fill="#666" opacity="0.5"/>
  <rect x="290" y="290" width="280" height="12" rx="2" fill="#666" opacity="0.5"/>

  <!-- CTA Button -->
  <rect x="290" y="320" width="150" height="40" rx="8" fill="#D2622A"/>
  <text x="365" y="345" font-family="Arial, sans-serif" font-size="14" font-weight="bold" fill="#fff" text-anchor="middle">Get Quote</text>

  <!-- Form Box -->
  <rect x="620" y="240" width="280" height="270" rx="8" fill="#F5E6D3" opacity="0.9"/>
  <rect x="640" y="260" width="240" height="30" rx="4" fill="#fff"/>
  <rect x="640" y="300" width="240" height="30" rx="4" fill="#fff"/>
  <rect x="640" y="340" width="240" height="30" rx="4" fill="#fff"/>
  <rect x="640" y="385" width="240" height="45" rx="6" fill="#D2622A"/>

  <!-- Checkmarks/Features -->
  <circle cx="300" cy="380" r="6" fill="#0D5C3B"/>
  <path d="M 297 380 L 299 383 L 304 377" stroke="#fff" stroke-width="2" fill="none"/>
  <rect x="315" y="375" width="180" height="10" rx="2" fill="#666" opacity="0.4"/>

  <circle cx="300" cy="410" r="6" fill="#0D5C3B"/>
  <path d="M 297 410 L 299 413 L 304 407" stroke="#fff" stroke-width="2" fill="none"/>
  <rect x="315" y="405" width="200" height="10" rx="2" fill="#666" opacity="0.4"/>

  <circle cx="300" cy="440" r="6" fill="#0D5C3B"/>
  <path d="M 297 440 L 299 443 L 304 437" stroke="#fff" stroke-width="2" fill="none"/>
  <rect x="315" y="435" width="190" height="10" rx="2" fill="#666" opacity="0.4"/>

  <!-- Warning Icon -->
  <circle cx="150" cy="315" r="60" fill="#D2622A" opacity="0.2"/>
  <path d="M 150 280 L 180 350 L 120 350 Z" fill="#D2622A"/>
  <text x="150" y="335" font-family="Arial, sans-serif" font-size="35" font-weight="bold" fill="#fff" text-anchor="middle">!</text>

  <!-- Title Text -->
  <text x="600" y="90" font-family="Arial, sans-serif" font-size="42" font-weight="bold" fill="#F5E6D3" text-anchor="middle">
    10 Signs You Need
  </text>
  <text x="600" y="135" font-family="Arial, sans-serif" font-size="42" font-weight="bold" fill="#D2622A" text-anchor="middle">
    A New Website
  </text>
</svg>
