<svg width="1200" height="630" xmlns="http://www.w3.org/2000/svg">
  <defs>
    <linearGradient id="bg" x1="0%" y1="0%" x2="100%" y2="100%">
      <stop offset="0%" stop-color="#0A1628"/>
      <stop offset="100%" stop-color="#1a2947"/>
    </linearGradient>
  </defs>
  <rect width="1200" height="630" fill="url(#bg)"/>

  <!-- Title -->
  <text x="600" y="80" text-anchor="middle" fill="#F5EFE6" font-family="Arial, sans-serif" font-size="38" font-weight="bold">Website Security</text>
  <text x="600" y="115" text-anchor="middle" fill="#FF6B2C" font-family="Arial, sans-serif" font-size="20">Protect your business and your customers</text>

  <!-- Shield center -->
  <path d="M600,160 L700,210 L700,340 C700,400 600,460 600,460 C600,460 500,400 500,340 L500,210 Z" fill="#1e3a5f" stroke="#10B981" stroke-width="3"/>
  <path d="M600,185 L680,225 L680,335 C680,385 600,435 600,435 C600,435 520,385 520,335 L520,225 Z" fill="#10B981" opacity="0.1"/>
  <!-- Checkmark on shield -->
  <polyline points="565,300 590,330 640,270" fill="none" stroke="#10B981" stroke-width="5" stroke-linecap="round" stroke-linejoin="round"/>

  <!-- Padlock on left -->
  <rect x="180" y="300" width="80" height="70" rx="8" fill="#1e3a5f" stroke="#FF6B2C" stroke-width="2"/>
  <path d="M200,300 L200,275 C200,255 240,255 240,275 L240,300" fill="none" stroke="#FF6B2C" stroke-width="3"/>
  <circle cx="220" cy="335" r="8" fill="#FF6B2C" opacity="0.6"/>
  <rect x="217" y="335" width="6" height="15" rx="2" fill="#FF6B2C" opacity="0.6"/>
  <text x="220" y="410" text-anchor="middle" fill="#F5EFE6" font-family="Arial, sans-serif" font-size="13" opacity="0.5">SSL Secured</text>

  <!-- Server rack on right -->
  <rect x="920" y="220" width="140" height="240" rx="8" fill="#1e3a5f" stroke="#F5EFE6" stroke-width="1.5"/>
  <!-- Server units -->
  <rect x="935" y="235" width="110" height="35" rx="3" fill="#0d1f3c"/>
  <circle cx="1025" cy="252" r="5" fill="#10B981"/>
  <circle cx="1010" cy="252" r="5" fill="#10B981" opacity="0.6"/>
  <rect x="945" y="246" width="40" height="4" rx="1" fill="#F5EFE6" opacity="0.1"/>

  <rect x="935" y="280" width="110" height="35" rx="3" fill="#0d1f3c"/>
  <circle cx="1025" cy="297" r="5" fill="#10B981"/>
  <circle cx="1010" cy="297" r="5" fill="#10B981" opacity="0.6"/>
  <rect x="945" y="291" width="40" height="4" rx="1" fill="#F5EFE6" opacity="0.1"/>

  <rect x="935" y="325" width="110" height="35" rx="3" fill="#0d1f3c"/>
  <circle cx="1025" cy="342" r="5" fill="#10B981"/>
  <circle cx="1010" cy="342" r="5" fill="#10B981" opacity="0.6"/>
  <rect x="945" y="336" width="40" height="4" rx="1" fill="#F5EFE6" opacity="0.1"/>

  <rect x="935" y="370" width="110" height="35" rx="3" fill="#0d1f3c"/>
  <circle cx="1025" cy="387" r="5" fill="#10B981"/>
  <circle cx="1010" cy="387" r="5" fill="#FF6B2C" opacity="0.6"/>
  <rect x="945" y="381" width="40" height="4" rx="1" fill="#F5EFE6" opacity="0.1"/>

  <rect x="935" y="415" width="110" height="35" rx="3" fill="#0d1f3c"/>
  <circle cx="1025" cy="432" r="5" fill="#10B981"/>
  <circle cx="1010" cy="432" r="5" fill="#10B981" opacity="0.6"/>
  <rect x="945" y="426" width="40" height="4" rx="1" fill="#F5EFE6" opacity="0.1"/>

  <text x="990" y="485" text-anchor="middle" fill="#F5EFE6" font-family="Arial, sans-serif" font-size="13" opacity="0.5">All Systems Go</text>

  <!-- Security stats -->
  <rect x="140" y="480" width="280" height="70" rx="10" fill="#1e3a5f" stroke="#10B981" stroke-width="1"/>
  <text x="280" y="515" text-anchor="middle" fill="#10B981" font-family="Arial, sans-serif" font-size="22" font-weight="bold">HTTPS</text>
  <text x="280" y="538" text-anchor="middle" fill="#F5EFE6" font-family="Arial, sans-serif" font-size="12" opacity="0.5">encrypted connection</text>

  <rect x="480" y="480" width="280" height="70" rx="10" fill="#1e3a5f" stroke="#FF6B2C" stroke-width="1"/>
  <text x="620" y="515" text-anchor="middle" fill="#FF6B2C" font-family="Arial, sans-serif" font-size="22" font-weight="bold">24/7</text>
  <text x="620" y="538" text-anchor="middle" fill="#F5EFE6" font-family="Arial, sans-serif" font-size="12" opacity="0.5">monitoring</text>

  <text x="600" y="600" text-anchor="middle" fill="#F5EFE6" font-family="Arial, sans-serif" font-size="16" opacity="0.5">Figgle Media</text>
</svg>